<svg width="371" height="300" viewBox="0 0 371 300" fill="none" xmlns="http://www.w3.org/2000/svg">
<g clip-path="url(#clip0)">
<path d="M262.273 96.3641C295.151 96.3641 334.863 72.4616 334.863 42.7831C334.863 35.1578 331.908 28.2727 326.227 22.252C331.896 18.0179 337.741 14.3303 343.579 11.4106C346.556 9.9228 347.755 6.30523 346.273 3.32963C344.779 0.347829 341.168 -0.846361 338.192 0.63579C330.781 4.34145 323.394 9.25372 316.284 14.8486C312.471 13.035 308.422 12.0458 304.125 12.0458C274.448 12.0464 250.545 51.7584 250.545 84.6362C250.545 91.1 255.803 96.3641 262.273 96.3641Z" fill="#303C42"/>
<path d="M304.126 24.0916C304.571 24.0916 304.992 24.1932 305.428 24.2271C292.98 35.9894 282.171 49.7635 275.271 63.5568C273.789 66.533 274.989 70.15 277.965 71.6384C278.836 72.0675 279.753 72.2736 280.659 72.2736C282.859 72.2736 284.988 71.0562 286.047 68.9445C292.963 55.1083 304.152 41.2529 316.95 29.8813C316.964 29.8959 316.981 29.9055 316.996 29.9202C320.912 33.8433 322.817 38.0486 322.817 42.783C322.817 64.6742 289.234 84.1658 262.59 84.3188C262.744 57.6813 282.235 24.0916 304.126 24.0916Z" fill="#7CB342"/>
<path d="M112.023 180.682C113.846 180.682 115.658 179.852 116.846 178.27C117.187 177.817 152.1 132.5 232.477 132.5C235.806 132.5 238.5 129.806 238.5 126.477C238.5 123.148 235.806 120.454 232.477 120.454C146.136 120.454 108.753 168.977 107.2 171.047C105.212 173.705 105.753 177.481 108.412 179.475C109.494 180.288 110.764 180.682 112.023 180.682Z" fill="#303C42"/>
<path d="M334.863 96.3641C307.832 96.3641 300.15 110.162 299.362 111.738C297.904 114.656 299.08 118.126 301.95 119.667C304.844 121.22 308.443 120.096 310.066 117.267C310.266 116.902 315.348 108.409 334.863 108.409C356.601 108.409 358.954 125.254 358.954 132.5C358.954 141.875 348.991 168.637 304.75 168.637C278.553 168.637 263.285 164.966 249.804 161.725C238.806 159.085 228.419 156.591 214.409 156.591C183.425 156.591 126.032 181.352 106.635 220.146C105.153 223.123 106.353 226.74 109.329 228.228C110.2 228.657 111.117 228.863 112.023 228.863C114.223 228.863 116.352 227.646 117.411 225.534C134.514 191.327 187.118 168.637 214.409 168.637C226.995 168.637 236.253 170.866 246.992 173.442C261.12 176.835 277.129 180.682 304.749 180.682C358.824 180.682 370.999 144.998 370.999 132.5C370.999 115.832 361.53 96.3641 334.863 96.3641Z" fill="#303C42"/>
<path d="M232.477 192.728C168.638 192.728 155.04 231.34 154.487 232.981C153.441 236.14 155.146 239.551 158.299 240.598C161.475 241.668 164.863 239.957 165.921 236.792C166.027 236.469 177.226 204.773 232.477 204.773C286.564 204.773 310.772 219.901 310.772 234.887C310.772 249.82 300.95 252.955 292.704 252.955C284.929 252.955 275.753 245.527 272.86 242.668C270.507 240.327 266.707 240.321 264.355 242.685C262.002 245.038 262.002 248.843 264.355 251.19C265.766 252.602 278.576 265 292.703 265C307.266 265 322.817 257.09 322.817 234.887C322.817 214.507 299.08 192.728 232.477 192.728Z" fill="#303C42"/>
</g>
<path d="M23.04 109.432C19.824 109.432 17.04 109.072 14.688 108.352C12.384 107.632 10.464 106.336 8.928 104.464C7.44 102.544 6.336 99.808 5.616 96.256C4.896 92.704 4.536 88.096 4.536 82.432C4.536 77.104 4.896 72.712 5.616 69.256C6.384 65.752 7.536 63.016 9.072 61.048C10.608 59.08 12.576 57.712 14.976 56.944C17.376 56.128 20.232 55.72 23.544 55.72C24.744 55.72 26.208 55.792 27.936 55.936C29.664 56.08 31.44 56.296 33.264 56.584C35.088 56.824 36.768 57.112 38.304 57.448V60.544C37.536 60.4 36.384 60.256 34.848 60.112C33.312 59.92 31.584 59.776 29.664 59.68C27.792 59.536 25.92 59.464 24.048 59.464C21.264 59.464 18.888 59.8 16.92 60.472C15 61.096 13.44 62.248 12.24 63.928C11.04 65.56 10.152 67.888 9.576 70.912C9 73.888 8.712 77.728 8.712 82.432C8.712 87.376 8.976 91.384 9.504 94.456C10.08 97.48 10.944 99.808 12.096 101.44C13.296 103.072 14.856 104.2 16.776 104.824C18.696 105.4 21.024 105.688 23.76 105.688C27.36 105.688 30.312 105.592 32.616 105.4C34.968 105.208 36.864 104.992 38.304 104.752V107.848C36.048 108.328 33.528 108.712 30.744 109C27.96 109.288 25.392 109.432 23.04 109.432ZM57.0313 109.072C54.0073 109.072 51.6793 108.208 50.0473 106.48C48.4153 104.704 47.5993 101.464 47.5993 96.76V54.064H51.7753V96.328C51.7753 98.824 51.9913 100.72 52.4233 102.016C52.9033 103.264 53.5753 104.152 54.4393 104.68C55.3033 105.16 56.3353 105.472 57.5353 105.616L61.7113 106.12V109.072H57.0313ZM82.5255 109.432C78.5895 109.432 75.4695 108.832 73.1655 107.632C70.9095 106.384 69.3015 104.344 68.3415 101.512C67.3815 98.632 66.9015 94.696 66.9015 89.704C66.9015 84.664 67.4055 80.728 68.4135 77.896C69.4215 75.064 71.0775 73.072 73.3815 71.92C75.7335 70.768 78.8535 70.192 82.7415 70.192C87.5895 70.192 91.1655 71.08 93.4695 72.856C95.8215 74.632 96.9975 77.92 96.9975 82.72C96.9975 85.936 96.0615 88.24 94.1895 89.632C92.3175 90.976 89.7495 91.648 86.4855 91.648H71.0775C71.0775 95.152 71.4135 97.96 72.0855 100.072C72.7575 102.184 73.9815 103.72 75.7575 104.68C77.5335 105.64 80.1015 106.12 83.4615 106.12H96.1335V108.64C93.8775 108.88 91.7175 109.072 89.6535 109.216C87.5895 109.36 85.2135 109.432 82.5255 109.432ZM71.0055 88.696H86.1975C88.5495 88.696 90.3015 88.288 91.4535 87.472C92.6055 86.608 93.1815 85.024 93.1815 82.72C93.1815 79.12 92.3895 76.672 90.8055 75.376C89.2215 74.08 86.5335 73.432 82.7415 73.432C79.7175 73.432 77.3415 73.864 75.6135 74.728C73.9335 75.592 72.7335 77.152 72.0135 79.408C71.3415 81.616 71.0055 84.712 71.0055 88.696ZM114.637 109.432C111.853 109.432 109.525 108.616 107.653 106.984C105.829 105.304 104.917 102.928 104.917 99.856V97.264C104.917 94.24 105.901 91.792 107.869 89.92C109.885 88.048 112.837 87.112 116.725 87.112H130.765V81.784C130.765 80.056 130.477 78.568 129.901 77.32C129.325 76.072 128.269 75.112 126.733 74.44C125.245 73.768 123.109 73.432 120.325 73.432H108.301V70.912C109.885 70.672 111.757 70.48 113.917 70.336C116.125 70.144 118.645 70.024 121.477 69.976C126.181 69.976 129.589 70.912 131.701 72.784C133.861 74.656 134.941 77.584 134.941 81.568V109H131.773L130.909 104.536C130.765 104.632 130.165 104.944 129.109 105.472C128.101 105.952 126.781 106.504 125.149 107.128C123.517 107.752 121.765 108.304 119.893 108.784C118.069 109.216 116.317 109.432 114.637 109.432ZM116.077 106.12C117.277 106.168 118.693 106.024 120.325 105.688C122.005 105.304 123.613 104.872 125.149 104.392C126.733 103.864 128.053 103.408 129.109 103.024C130.165 102.64 130.717 102.424 130.765 102.376V89.344L117.373 89.848C114.349 89.992 112.213 90.76 110.965 92.152C109.717 93.496 109.093 95.224 109.093 97.336V99.136C109.093 100.864 109.453 102.256 110.173 103.312C110.893 104.32 111.781 105.04 112.837 105.472C113.893 105.904 114.973 106.12 116.077 106.12ZM146.459 109V70.624H149.555L150.635 74.944C152.507 73.648 154.715 72.496 157.259 71.488C159.851 70.48 162.515 69.976 165.251 69.976C167.939 69.976 170.147 70.576 171.875 71.776C173.651 72.976 174.971 74.536 175.835 76.456C176.699 78.376 177.131 80.44 177.131 82.648V109H172.955V83.08C172.955 80.44 172.163 78.232 170.579 76.456C169.043 74.68 166.883 73.792 164.099 73.792C161.363 73.792 158.987 74.152 156.971 74.872C155.003 75.592 152.891 76.576 150.635 77.824V109H146.459ZM2.808 205L21.456 152.152H26.856L45.504 205H41.112L35.28 188.584H12.96L7.2 205H2.808ZM14.04 184.84H34.056L24.12 155.896L14.04 184.84ZM54.9287 159.424C54.2087 159.424 53.8487 159.064 53.8487 158.344V153.232C53.8487 152.512 54.2087 152.152 54.9287 152.152H57.7367C58.3607 152.152 58.6727 152.512 58.6727 153.232V158.344C58.6727 159.064 58.3607 159.424 57.7367 159.424H54.9287ZM54.2087 205V166.624H58.3847V205H54.2087ZM70.0993 205V166.624H73.1953L74.2753 173.536C76.0993 171.424 78.1393 169.672 80.3953 168.28C82.6513 166.888 85.2193 166.192 88.0993 166.192C89.5393 166.192 90.7873 166.336 91.8433 166.624V170.872C91.2193 170.776 90.5713 170.68 89.8993 170.584C89.2273 170.488 88.5073 170.44 87.7393 170.44C84.9553 170.44 82.5553 170.992 80.5393 172.096C78.5713 173.152 76.4833 174.712 74.2753 176.776V205H70.0993Z" fill="#303C42"/>
<defs>
<clipPath id="clip0">
<rect width="265" height="265" fill="white" transform="translate(106)"/>
</clipPath>
</defs>
</svg>
